<svg height="512pt" viewBox="0 -86 512 512" width="512pt" xmlns="http://www.w3.org/2000/svg"><path d="m472 70c-16.570312 0-30 13.429688-30 30 0 9.179688 4.121094 17.398438 10.628906 22.890625 0 0-94.332031 104.5625-96.628906 107.109375-7.515625-14.28125-83.613281-158.878906-86.019531-163.449219 9.53125-5.03125 16.019531-15.03125 16.019531-26.550781 0-16.570312-13.429688-30-30-30s-30 13.429688-30 30c0 11.519531 6.488281 21.519531 16.019531 26.550781-2.484375 4.722657-78.503906 149.167969-86.019531 163.449219-2.726562-3.023438-96.628906-107.109375-96.628906-107.109375 6.507812-5.492187 10.628906-13.710937 10.628906-22.890625 0-16.570312-13.429688-30-30-30s-30 13.429688-30 30 13.429688 30 30 30c1.441406 0 2.851562-.101562 4.238281-.308594v.007813l28.933594 160.5c-9.710937 1.371093-17.171875 9.710937-17.171875 19.800781 0 11.050781 8.949219 20 20 20h360c11.050781 0 20-8.949219 20-20 0-10.089844-7.460938-18.429688-17.171875-19.800781l28.933594-160.5v-.007813c1.386719.207032 2.796875.308594 4.238281.308594 16.570312 0 30-13.429688 30-30s-13.429688-30-30-30zm0 0" fill="#ffbe52"/><g fill="#ed659f"><path d="m411.078125 168.941406-55.078125 61.058594-66.539062-126.441406c8.460937-2.320313 17.347656-3.558594 26.539062-3.558594 44.390625 0 82.019531 28.921875 95.078125 68.941406zm0 0"/><path d="m227.714844 210 28.28125-28.28125 28.28125 28.28125-28.28125 28.28125zm0 0"/><path d="m222.539062 103.558594-66.539062 126.441406-55.078125-61.058594c13.058594-40.019531 50.6875-68.941406 95.078125-68.941406 9.191406 0 18.078125 1.238281 26.539062 3.558594zm0 0"/></g><path d="m256 280c-5.519531 0-10 4.480469-10 10s4.480469 10 10 10 10-4.480469 10-10-4.480469-10-10-10zm0 0"/><path d="m472 60c-22.054688 0-40 17.945312-40 40 0 8.28125 2.554688 16.226562 7.1875 22.859375l-24.929688 27.632813c-18.449218-36.75-56.117187-60.492188-98.257812-60.492188-7.171875 0-14.300781.699219-21.296875 2.070312l-11.816406-22.46875c8.246093-7.476562 13.113281-18.140624 13.113281-29.601562 0-22.054688-17.945312-40-40-40s-40 17.945312-40 40c0 11.460938 4.867188 22.125 13.113281 29.601562l-11.816406 22.46875c-6.996094-1.371093-14.128906-2.070312-21.296875-2.070312-42.140625 0-79.808594 23.742188-98.257812 60.492188l-24.929688-27.632813c4.632812-6.628906 7.1875-14.578125 7.1875-22.859375 0-22.054688-17.945312-40-40-40s-40 17.945312-40 40c0 20.671875 15.761719 37.730469 35.898438 39.789062l25.917968 143.792969c-9.460937 5.121094-15.816406 15.167969-15.816406 26.417969 0 16.542969 13.457031 30 30 30h360c16.542969 0 30-13.457031 30-30 0-11.25-6.355469-21.296875-15.816406-26.417969l25.917968-143.792969c20.136719-2.058593 35.898438-19.117187 35.898438-39.789062 0-22.054688-17.945312-40-40-40zm-72.371094 106.710938-41.453125 45.949218-53.640625-101.925781c3.792969-.484375 7.621094-.734375 11.464844-.734375 37.167969 0 70.082031 22.570312 83.628906 56.710938zm-143.628906-146.710938c11.027344 0 20 8.972656 20 20s-8.921875 20-20 20c-11.09375 0-20-8.984375-20-20 0-11.027344 8.972656-20 20-20zm-60 90c3.84375 0 7.671875.25 11.464844.734375l-53.640625 101.925781-41.453125-45.949218c13.546875-34.140626 46.460937-56.710938 83.628906-56.710938zm-176-10c0-11.027344 8.972656-20 20-20s20 8.972656 20 20c0 11.132812-9.085938 20-20 20-11.027344 0-20-8.972656-20-20zm416 220h-360c-5.515625 0-10-4.484375-10-10 0-5.414062 4.394531-10 10-10h140c5.523438 0 10-4.476562 10-10s-4.476562-10-10-10h-134.507812l-25.8125-143.21875c.65625-.277344 1.304687-.582031 1.945312-.898438l90.949219 100.816407c4.675781 5.179687 13.050781 4.085937 16.273437-2.042969 0 0 66.492188-126.339844 66.519532-126.386719.007812-.019531.023437-.035156.03125-.054687l15.414062-29.296875c3.003906.710937 6.089844 1.082031 9.1875 1.082031s6.183594-.375 9.1875-1.082031l15.410156 29.296875c.015625.023437.03125.046875.042969.070312.019531.03125 66.507813 126.371094 66.507813 126.371094 3.226562 6.128906 11.597656 7.222656 16.277343 2.042969l90.949219-100.816407c.640625.316407 1.289062.617188 1.945312.898438l-25.8125 143.21875h-134.507812c-5.523438 0-10 4.476562-10 10s4.476562 10 10 10h140c5.664062 0 10 4.644531 10 10 0 5.515625-4.484375 10-10 10zm36-200c-10.910156 0-20-8.859375-20-20 0-11.027344 8.972656-20 20-20s20 8.972656 20 20-8.972656 20-20 20zm0 0"/><path d="m256 248.28125c2.558594 0 5.117188-.976562 7.070312-2.929688l28.28125-28.28125c3.90625-3.90625 3.90625-10.234374 0-14.140624l-28.28125-28.28125c-3.90625-3.90625-10.234374-3.90625-14.140624 0l-28.28125 28.28125c-3.90625 3.902343-3.90625 10.234374 0 14.140624l28.28125 28.28125c1.953124 1.953126 4.511718 2.929688 7.070312 2.929688zm0-52.417969 14.136719 14.136719-14.136719 14.136719-14.136719-14.136719zm0 0"/></svg>