<svg id="color_line" height="512" viewBox="0 0 74 74" width="512" xmlns="http://www.w3.org/2000/svg" data-name="color line"><path d="m32.41 32.9a2.17 2.17 0 0 1 0-.36 4.61 4.61 0 1 1 9.22 0 2.17 2.17 0 0 1 0 .36" fill="#fcd462"/><path d="m41.59 33.4h-.09a.5.5 0 0 1 -.4-.58 2.44 2.44 0 0 0 0-.27 4.11 4.11 0 1 0 -8.22 0 2.44 2.44 0 0 0 0 .27.5.5 0 0 1 -1 .18 2.22 2.22 0 0 1 0-.45 5.11 5.11 0 1 1 10.22 0 2.22 2.22 0 0 1 0 .45.49.49 0 0 1 -.51.4z" fill="#323c6b"/><path d="m41.38 23.48h3.32a2.22 2.22 0 0 1 2.23 2.22 2.22 2.22 0 0 1 -2.23 2.22h-15.4a2.21 2.21 0 0 1 -2.22-2.22 2.21 2.21 0 0 1 2.22-2.22h1.58" fill="#fcd462"/><path d="m44.7 28.42h-15.4a2.72 2.72 0 0 1 0-5.44h1.58a.5.5 0 0 1 .5.5.5.5 0 0 1 -.5.5h-1.58a1.72 1.72 0 0 0 0 3.44h15.4a1.72 1.72 0 1 0 0-3.44h-3.32a.5.5 0 0 1 -.5-.5.5.5 0 0 1 .5-.5h3.32a2.72 2.72 0 1 1 0 5.44z" fill="#323c6b"/><circle cx="37" cy="51.45" fill="#fcd462" r="19.55"/><path d="m56.55 51.45a19.53 19.53 0 0 1 -7.84 15.66 19.55 19.55 0 0 0 -26-29 19.54 19.54 0 0 1 33.8 13.38z" fill="#f7be56"/><circle cx="37" cy="51.45" fill="#fcd462" r="15.13"/><path d="m37 67.08a15.64 15.64 0 1 1 15.63-15.63 15.65 15.65 0 0 1 -15.63 15.63zm0-30.27a14.64 14.64 0 1 0 14.63 14.64 14.65 14.65 0 0 0 -14.63-14.64z" fill="#323c6b"/><path d="m37 42.9 2.63 5.32 5.87.86-4.25 4.14 1.01 5.85-5.26-2.76-5.25 2.76 1-5.85-4.25-4.14 5.87-.86z" fill="#eeefee"/><path d="m41.25 53.22 1.01 5.85-2.22-1.17-.54-3.12 4.25-4.14-5.87-.85-2.14-4.34 1.26-2.55 2.63 5.32 5.87.86z" fill="#e1e6e9"/><path d="m51.44 3-9.22 22.7h-.04l-5.16-12.72 4.04-9.98z" fill="#fe7058"/><path d="m51.44 3-9.22 22.7h-.04l-1.2-2.96 7.21-17.75h-7.94l.81-1.99z" fill="#ea6453"/><path d="m47.8 3-9.22 22.7h-3.28l9.22-22.7z" fill="#eeefee"/><path d="m38.58 26.2h-3.28a.51.51 0 0 1 -.42-.22.49.49 0 0 1 0-.47l9.22-22.7a.49.49 0 0 1 .46-.31h3.24a.5.5 0 0 1 .46.69l-9.26 22.7a.5.5 0 0 1 -.42.31zm-2.58-1h2.2l8.85-21.7h-2.19z" fill="#323c6b"/><path d="m42.18 25.7h-10.39l-9.23-22.7h10.4l4.06 9.98z" fill="#fe7058"/><path d="m42.18 26.2h-10.39a.5.5 0 0 1 -.47-.31l-9.22-22.7a.52.52 0 0 1 0-.47.49.49 0 0 1 .41-.22h10.49a.5.5 0 0 1 .46.31l9.22 22.7a.47.47 0 0 1 0 .47.48.48 0 0 1 -.5.22zm-10.06-1h9.32l-8.82-21.7h-9.31z" fill="#323c6b"/><path d="m26.2 3 9.22 22.7h3.28l-9.22-22.7z" fill="#eeefee"/><g fill="#323c6b"><path d="m38.7 26.2h-3.28a.5.5 0 0 1 -.46-.31l-9.22-22.7a.5.5 0 0 1 .46-.69h3.28a.49.49 0 0 1 .46.31l9.22 22.7a.49.49 0 0 1 0 .47.51.51 0 0 1 -.46.22zm-2.94-1h2.24l-8.86-21.7h-2.14z"/><path d="m59.51 53.33a.49.49 0 0 1 -.51-.53c0-.45 0-.9 0-1.35a21.64 21.64 0 0 0 -1.24-7.2.5.5 0 1 1 .95-.33 22.84 22.84 0 0 1 1.29 7.53v1.41a.49.49 0 0 1 -.49.47z"/><path d="m59.06 56.54h-.06a.5.5 0 0 1 -.37-.6c0-.2.09-.4.12-.6a.51.51 0 0 1 .58-.41.51.51 0 0 1 .41.58c0 .22-.09.44-.14.66a.49.49 0 0 1 -.54.37z"/><path d="m25 17.5a.5.5 0 0 1 -.46-.31l-.33-.81a.51.51 0 0 1 .27-.66.5.5 0 0 1 .65.28l.33.81a.49.49 0 0 1 -.27.65.43.43 0 0 1 -.19.04z"/><path d="m23.84 14.62a.49.49 0 0 1 -.46-.31l-2.89-7.12a.5.5 0 0 1 .92-.38l2.9 7.13a.5.5 0 0 1 -.28.65.58.58 0 0 1 -.19.03z"/><path d="m37 71.5a20.06 20.06 0 1 1 20-20 20.07 20.07 0 0 1 -20 20zm0-39.11a19.06 19.06 0 1 0 19 19.06 19.07 19.07 0 0 0 -19-19.06z"/><path d="m42.22 26.2a.53.53 0 0 1 -.5-.31l-5.16-12.72a.55.55 0 0 1 0-.38l4.05-10a.49.49 0 0 1 .46-.31h10.37a.5.5 0 0 1 .46.69l-9.22 22.7a.5.5 0 0 1 -.46.33zm-4.66-13.2 4.64 11.42 8.5-20.92h-9.3z"/><path d="m42.25 59.57a.48.48 0 0 1 -.23 0l-5-2.64-5 2.64a.53.53 0 0 1 -.53 0 .51.51 0 0 1 -.2-.49l1-5.59-4.06-4a.51.51 0 0 1 -.13-.52.51.51 0 0 1 .4-.34l5.5-.86 2.51-5.09a.52.52 0 0 1 .9 0l2.59 5.09 5.62.81a.51.51 0 0 1 .4.34.51.51 0 0 1 -.13.52l-4.06 4 1 5.59a.51.51 0 0 1 -.2.49.53.53 0 0 1 -.38.05zm-5.25-3.76a.46.46 0 0 1 .23.06l4.36 2.29-.83-4.85a.53.53 0 0 1 .14-.45l3.53-3.43-4.87-.71a.49.49 0 0 1 -.38-.27l-2.18-4.45-2.18 4.42a.49.49 0 0 1 -.38.27l-4.87.71 3.53 3.43a.53.53 0 0 1 .14.45l-.83 4.85 4.36-2.29a.46.46 0 0 1 .23-.03z"/></g><path d="m27.38 58.77a.61.61 0 0 1 -.49-.26 12.25 12.25 0 0 1 -2.23-7.06 8.3 8.3 0 0 1 .05-.87.62.62 0 0 1 .64-.57.6.6 0 0 1 .56.63v.78a11 11 0 0 0 2 6.37.61.61 0 0 1 -.15.84.66.66 0 0 1 -.38.14z" fill="#fff"/><path d="m25.75 48.74h-.17a.6.6 0 0 1 -.41-.74c.08-.27.17-.54.27-.8a.6.6 0 0 1 .77-.36.6.6 0 0 1 .35.77c-.08.24-.16.48-.23.73a.61.61 0 0 1 -.58.4z" fill="#fff"/></svg>