<svg id="_x3C_Layer_x3E_" height="512" viewBox="0 0 32 32" width="512" xmlns="http://www.w3.org/2000/svg"><g id="Client_rating_x2C__testimonial_x2C__customers_x2C__star_team_x2C__team_x2C__group"><g id="XMLID_720_"><g id="XMLID_852_"><g id="XMLID_739_"><g><path d="m8.5 12.579c-.276 0-.5-.224-.5-.5v-1.811c0-.157.073-.304.198-.398.51-.386.802-.966.802-1.591v-1.5c0-1.103-.897-2-2-2s-2 .897-2 2v1.5c0 .625.292 1.205.802 1.591.125.094.198.242.198.399v1.811c0 .276-.224.5-.5.5s-.5-.225-.5-.501v-1.575c-.639-.571-1-1.369-1-2.225v-1.5c0-1.654 1.346-3 3-3s3 1.346 3 3v1.5c0 .856-.361 1.653-1 2.225v1.575c0 .276-.224.5-.5.5z" fill="rgb(0,0,0)"/></g></g><g id="XMLID_737_"><g><path d="m7.503 11.229c-.232 0-.44-.163-.489-.399-.055-.271.119-.535.39-.59.924-.191 1.596-1.015 1.596-1.961 0-.276.224-.5.5-.5s.5.224.5.5c0 1.418-1.008 2.654-2.396 2.939-.034.007-.067.011-.101.011z" fill="rgb(0,0,0)"/></g></g><g id="XMLID_735_"><g><path d="m10.374 13.363c-.066 0-.133-.013-.197-.041l-1.874-.805c-.254-.109-.371-.403-.262-.657.108-.255.402-.37.656-.262l1.874.805c.254.109.371.403.262.657-.081.19-.266.303-.459.303z" fill="rgb(0,0,0)"/></g></g><g id="XMLID_721_"><g><path d="m4 19.416c-.069 0-.14-.014-.207-.045l-1.914-.87c-.534-.244-.879-.78-.879-1.366v-1.386c0-1.402.83-2.662 2.114-3.21l2.187-.949c.256-.11.548.006.658.259.109.253-.007.548-.26.658l-2.189.95c-.918.393-1.51 1.292-1.51 2.292v1.386c0 .195.115.375.293.456l1.914.87c.251.114.362.411.248.662-.084.184-.266.293-.455.293z" fill="rgb(0,0,0)"/></g></g><g id="XMLID_5197_"><g><path d="m8.939 7.689c-.996 0-1.948-.343-2.753-.992-.214-.173-.248-.487-.076-.702.175-.215.49-.248.703-.075.642.517 1.404.796 2.185.769-.048-1.062-.926-1.91-1.998-1.91-1.103 0-2 .897-2 2v.37c0 .276-.224.5-.5.5s-.5-.223-.5-.5v-.37c0-1.654 1.346-3 3-3s3 1.346 3 3v.35c0 .246-.179.455-.421.494-.231.037-.431.066-.64.066z" fill="rgb(0,0,0)"/></g></g><g id="XMLID_5195_"><g><path d="m26.5 12.579c-.276 0-.5-.224-.5-.5v-1.811c0-.157.073-.304.198-.398.51-.386.802-.966.802-1.591v-1.5c0-1.103-.897-2-2-2s-2 .897-2 2v1.5c0 .625.292 1.205.802 1.591.125.094.198.242.198.399v1.811c0 .276-.224.5-.5.5s-.5-.224-.5-.5v-1.575c-.639-.571-1-1.369-1-2.225v-1.5c0-1.654 1.346-3 3-3s3 1.346 3 3v1.5c0 .856-.361 1.653-1 2.225v1.575c0 .275-.224.499-.5.499z" fill="rgb(0,0,0)"/></g></g><g id="XMLID_5194_"><g><path d="m25.503 11.229c-.232 0-.44-.163-.489-.399-.055-.271.119-.535.39-.59.924-.191 1.596-1.015 1.596-1.961 0-.276.224-.5.5-.5s.5.224.5.5c0 1.418-1.008 2.654-2.396 2.939-.034.007-.067.011-.101.011z" fill="rgb(0,0,0)"/></g></g><g id="XMLID_730_"><g><path d="m21.773 13.3c-.193 0-.378-.113-.459-.303-.109-.253.008-.548.262-.657l1.727-.742c.252-.107.547.007.656.262.109.253-.008.548-.262.657l-1.727.742c-.064.028-.13.041-.197.041z" fill="rgb(0,0,0)"/></g></g><g id="XMLID_715_"><g><path d="m28 19.416c-.189 0-.371-.109-.455-.293-.114-.251-.003-.548.248-.662l1.914-.87c.178-.081.293-.26.293-.456v-1.386c0-1-.592-1.899-1.507-2.29l-2.192-.952c-.253-.11-.369-.404-.26-.658.11-.254.4-.37.658-.259l2.189.95c1.282.547 2.112 1.807 2.112 3.209v1.386c0 .586-.345 1.122-.879 1.366l-1.914.87c-.067.03-.138.045-.207.045z" fill="rgb(0,0,0)"/></g></g><g id="XMLID_724_"><g><path d="m17.31 6.195c-1.422 0-2.902-.501-3.718-1.235-.206-.185-.223-.501-.038-.706s.504-.222.706-.037c.986.886 3.348 1.349 4.701.623.243-.131.547-.04.677.204.131.244.039.546-.204.677-.617.329-1.362.474-2.124.474z" fill="rgb(0,0,0)"/></g></g><g id="XMLID_710_"><g id="XMLID_712_"><g><path d="m15.993 15.279c-1.659 0-2.524-1.294-2.75-1.979-.087-.263.056-.545.318-.632.262-.086.543.056.63.316.021.06.464 1.294 1.802 1.294 1.349 0 1.824-1.272 1.845-1.326.093-.259.383-.394.638-.302.259.092.396.375.305.635-.029.082-.72 1.994-2.788 1.994z" fill="rgb(0,0,0)"/></g></g><g id="XMLID_726_"><g><path d="m25.5 19.279c-.276 0-.5-.224-.5-.5v-.279c0-1.483-.935-2.809-2.326-3.298l-4.171-1.48c-.6-.209-1.003-.777-1.003-1.412v-1.23c0-.276.224-.5.5-.5s.5.224.5.5v1.23c0 .21.135.398.335.468l4.172 1.481c1.79.629 2.993 2.334 2.993 4.241v.28c0 .276-.224.499-.5.499z" fill="rgb(0,0,0)"/></g></g><g id="XMLID_725_"><g><path d="m6.5 19.279c-.276 0-.5-.224-.5-.5v-.27c0-.312.033-.625.098-.934.322-1.523 1.436-2.793 2.904-3.317l4.162-1.46c.201-.07.336-.259.336-.469v-1.25c0-.276.224-.5.5-.5s.5.224.5.5v1.25c0 .634-.403 1.202-1.005 1.413l-4.159 1.459c-1.143.407-2.009 1.396-2.26 2.581-.051.24-.076.485-.076.727v.27c0 .277-.224.5-.5.5z" fill="rgb(0,0,0)"/></g></g><g id="XMLID_706_"><g><path d="m16 12.279c-.276 0-.5-.224-.5-.5s.224-.5.5-.5c1.038 0 3-.94 3-4.5v-1.5c0-1.654-1.346-3-3-3s-3 1.346-3 3v1.5c0 1.724.461 3.043 1.332 3.814.207.183.227.499.043.706-.185.208-.5.225-.705.043-.762-.674-1.67-2.012-1.67-4.563v-1.5c0-2.206 1.794-4 4-4s4 1.794 4 4v1.5c0 4.351-2.616 5.5-4 5.5z" fill="rgb(0,0,0)"/></g></g></g></g><g id="XMLID_1069_"><g id="XMLID_908_"><g><path d="m23.618 28.279c-.184 0-.36-.102-.448-.278-.122-.248-.021-.547.227-.67l2.473-1.225c.139-.069.305-.069.443 0l1.616.801-.263-1.784c-.022-.154.028-.311.138-.422l1.263-1.291-1.78-.303c-.153-.026-.286-.123-.359-.261l-.836-1.598-.837 1.598c-.073.138-.206.235-.359.261l-1.779.303 1.262 1.291c.193.198.189.514-.008.707-.198.194-.515.19-.707-.008l-1.929-1.973c-.13-.133-.176-.327-.118-.504s.208-.307.392-.338l2.476-.422 1.165-2.224c.087-.165.258-.268.443-.268.187 0 .356.104.443.268l1.164 2.224 2.477.422c.184.031.334.162.392.338s.012.371-.118.504l-1.757 1.795.366 2.484c.026.184-.051.368-.201.477-.15.11-.35.127-.516.043l-2.25-1.115-2.251 1.115c-.073.037-.149.053-.224.053z" fill="rgb(0,0,0)"/></g></g><g id="XMLID_1071_"><g><path d="m13.076 31c-.104 0-.207-.032-.294-.095-.15-.109-.228-.293-.201-.478l.438-2.983-2.108-2.156c-.13-.133-.176-.327-.118-.504s.208-.308.392-.338l2.974-.506 1.398-2.671c.174-.33.713-.33.887 0l1.398 2.671 2.974.506c.184.031.334.162.392.338s.012.371-.118.504l-2.109 2.156.439 2.983c.026.184-.051.368-.201.477-.15.111-.35.126-.516.043l-2.703-1.339-2.702 1.339c-.07.035-.146.053-.222.053zm-.783-5.729 1.614 1.651c.109.112.16.268.138.422l-.336 2.283 2.069-1.025c.139-.07.305-.07.443 0l2.068 1.025-.336-2.283c-.022-.154.028-.311.138-.422l1.615-1.651-2.277-.388c-.153-.026-.286-.123-.359-.261l-1.07-2.045-1.07 2.045c-.073.138-.206.235-.359.261z" fill="rgb(0,0,0)"/></g></g><g id="XMLID_760_"><g><path d="m8.463 28.279c-.075 0-.15-.017-.222-.052l-2.25-1.115-2.251 1.116c-.165.082-.364.066-.516-.044-.15-.109-.228-.293-.201-.477l.366-2.484-1.757-1.795c-.13-.133-.176-.327-.118-.504s.208-.308.392-.338l2.477-.422 1.165-2.224c.087-.165.258-.268.443-.268.187 0 .356.104.443.268l1.164 2.224 2.476.422c.184.031.334.162.392.338s.012.371-.118.504l-1.929 1.972c-.191.198-.508.202-.707.008-.197-.193-.201-.509-.008-.707l1.262-1.291-1.779-.303c-.154-.026-.286-.123-.359-.261l-.836-1.598-.837 1.598c-.073.138-.206.235-.359.261l-1.78.303 1.263 1.291c.109.112.16.268.138.422l-.263 1.784 1.617-.801c.139-.069.305-.069.443 0l2.472 1.225c.248.123.349.422.227.67-.09.176-.267.278-.45.278z" fill="rgb(0,0,0)"/></g></g></g></g></g></svg>