<svg id="Layer_1" height="512" viewBox="0 0 64 64" width="512" xmlns="http://www.w3.org/2000/svg"><circle cx="32" cy="53" fill="#ffcc3e" r="3"/><path d="m15 34v6h-5c-1.66 0-3-1.34-3-3 0-.83.34-1.58.88-2.12s1.29-.88 2.12-.88z" fill="#f7a539"/><path d="m56.12 34.88c.54.54.88 1.29.88 2.12 0 1.66-1.34 3-3 3h-5v-6h5c.83 0 1.58.34 2.12.88z" fill="#f7a539"/><path d="m35 34 7 4v11l-7 4c0-1.66-1.34-3-3-3s-3 1.34-3 3l-7-4v-11l7-4c0 1.66 1.34 3 3 3s3-1.34 3-3z" fill="#0da2d6"/><circle cx="32" cy="34" fill="#ffcc3e" r="3"/><path d="m49 40v13l-17 10-17-10v-19l17-10 17 10zm-7 9v-11l-7-4c0-1.66-1.34-3-3-3s-3 1.34-3 3l-7 4v11l7 4c0 1.66 1.34 3 3 3s3-1.34 3-3z" fill="#34c1e2"/><g fill="#f7a539"><path d="m54.28 13.43c-.19-.44-.28-.93-.28-1.43 0-2.21 1.79-4 4-4s4 1.79 4 4-1.79 4-4 4c-1.7 0-3.16-1.06-3.72-2.57z"/><path d="m48 6 1.84 10.1-4.84 2.9-5.84-6.37z"/><path d="m34.79 7.86c-.72.71-1.71 1.14-2.79 1.14s-2.07-.43-2.79-1.14c-.75-.72-1.21-1.74-1.21-2.86 0-2.21 1.79-4 4-4s4 1.79 4 4c0 1.12-.46 2.14-1.21 2.86z"/><path d="m24.84 12.63-5.84 6.37-4.84-2.9 1.84-10.1z"/></g><path d="m14.16 16.1 4.84 2.9 5.84-6.37 4.37-4.77c.72.71 1.71 1.14 2.79 1.14s2.07-.43 2.79-1.14l4.37 4.77 5.84 6.37 4.84-2.9 4.44-2.67c.56 1.51 2.02 2.57 3.72 2.57l-4 18h-5l-17-10-17 10h-5l-4-18c1.7 0 3.16-1.06 3.72-2.57z" fill="#ffcc3e"/><path d="m10 12c0 .5-.09.99-.28 1.43-.56 1.51-2.02 2.57-3.72 2.57-2.21 0-4-1.79-4-4s1.79-4 4-4 4 1.79 4 4z" fill="#f7a539"/><path d="m32.555 17.168c-.336-.225-.773-.225-1.109 0l-6 4c-.46.307-.584.927-.277 1.387.305.459.925.582 1.387.277l5.445-3.63 5.445 3.63c.171.113.875.418 1.387-.277.328-.445.183-1.08-.277-1.387l-6-4z" fill="#34c1e2"/></svg>