<svg xmlns="http://www.w3.org/2000/svg" viewBox="0 0 159.25 77.42"><defs><style>.cls-1{fill:#ffd757;}.cls-2{fill:none;stroke:#ffd757;stroke-miterlimit:10;stroke-width:0.25px;}</style></defs><g id="Layer_2" data-name="Layer 2"><g id="Layer_1-2" data-name="Layer 1"><path class="cls-1" d="M2,50.1H7.69l3.93-8.57H26.74l3.7,8.57h5.83L19.42,12.57ZM13.84,36.52l5.48-12,5.24,12Z"/><polygon class="cls-1" points="59.01 39.58 46.88 12.14 39.45 50.1 44.97 50.1 48.76 28.77 58.91 51.73 69.37 28.79 72.77 50.1 78.24 50.1 71.56 12.14 59.01 39.58"/><path class="cls-1" d="M104.8,20.65,97.27,39.26,87.5,14.79H81.67l15.48,38,11.33-27.13A17.23,17.23,0,0,1,104.8,20.65Z"/><path class="cls-1" d="M117.39,30.06v20h5.33v-20a16.56,16.56,0,0,1-2.46.18A17,17,0,0,1,117.39,30.06Z"/><path class="cls-1" d="M147.74,19.14A14.74,14.74,0,0,1,157.3,23V16.69a18,18,0,0,0-9.19-2.58,17.81,17.81,0,0,0-11.28,3.66,17.27,17.27,0,0,1-6.57,9.32,18.62,18.62,0,0,0-.82,5.52,17.5,17.5,0,0,0,5.34,12.85,17.71,17.71,0,0,0,12.92,5.28,19.27,19.27,0,0,0,9.6-2.58V41.73a27.09,27.09,0,0,1-2.48,1.88,13.48,13.48,0,0,1-2.27,1.23,11.32,11.32,0,0,1-4.78.92,12.39,12.39,0,0,1-9.2-3.82,12.88,12.88,0,0,1-3.75-9.38,13.18,13.18,0,0,1,3.75-9.51A12.17,12.17,0,0,1,147.74,19.14Z"/><path class="cls-1" d="M130.7,21.35l-.45,0a4,4,0,0,0,0-.6.88.88,0,0,0-.14-.44,1.22,1.22,0,0,1-.34-1.07,1.08,1.08,0,0,1,0-.18.51.51,0,0,0-.2-.47.63.63,0,0,1-.12-.82,6.1,6.1,0,0,0,.29-.57.47.47,0,0,0,0-.31c-.24-.45-.5-.88-.74-1.32a.72.72,0,0,1-.06-.36c0-.29,0-.58.08-.89a2.32,2.32,0,0,1-.31,0,1.55,1.55,0,0,1-.58-.14.72.72,0,0,0-1,0,.71.71,0,0,1-.26.06,4.14,4.14,0,0,0-.79,0,.64.64,0,0,1-.78-.2l-.43-.49a1.6,1.6,0,0,1-.6-1.6.31.31,0,0,1,0-.1s0-.09,0-.1c.24-.1.2-.3.19-.5-.2,0-.28-.05-.33-.24s0-.25.15-.35c.33-.22.65-.48,1-.69a.5.5,0,0,0,.28-.54c0-.13,0-.35,0-.39a1.46,1.46,0,0,1,.83-.39,2.1,2.1,0,0,0,.84-.08,6.74,6.74,0,0,1,1.79-.27,4.63,4.63,0,0,1,0,.54c0,.16,0,.23.21.27.39.11.77.26,1.16.37a.58.58,0,0,0,.23,0c0-.15,0-.26,0-.38.6-.12.61-.12,1,.22a.7.7,0,0,0,.53.17h.64a1,1,0,0,0,.2-.05c-.09-.27-.19-.5-.25-.75a.34.34,0,0,0-.44-.31c-.43,0-.65-.16-.72-.59,0-.11,0-.23,0-.34-.52.07-.38.56-.58.87-.15-.26-.5-.37-.47-.71a.53.53,0,0,0-.24-.52,1,1,0,0,1-.27-.23c-.21-.25-.47-.16-.7-.15,0,.64.59.65.88.95,0,.1-.09.19-.08.26,0,.26-.11.34-.3.38a.36.36,0,0,1-.44-.25c.43,0,.43,0,.5-.19-.34-.35-.89-.43-1.1-1a2.91,2.91,0,0,1-.27.24c-.07,0-.17.1-.22.08-.29-.13-.42,0-.56.24s-.21.22-.25.35c-.2.63-.69.56-1.17.54h0a.43.43,0,0,1-.48-.42c0-.1,0-.21,0-.31,0-.3.07-.5.36-.54a6.77,6.77,0,0,1,.78,0l.23,0c.13-.24.14-.41-.17-.45a2.4,2.4,0,0,0,0-.24c0-.23.08-.37.34-.36a.63.63,0,0,0,.62-.39c.21-.43.58-.44,1-.39l.36,0c0-.23-.06-.42-.09-.64l-.53.2a2.73,2.73,0,0,0-.13-.29c-.05-.07-.11-.16-.19-.18-.24-.07-.32-.28-.13-.46a1.68,1.68,0,0,1,.52-.3.5.5,0,0,0,.36-.38A13.15,13.15,0,0,0,124,.47a13,13,0,0,0-5.81-.26c-1.91.35-4.79,1.6-5.31,2.3a2.41,2.41,0,0,1,.54,0,3.24,3.24,0,0,1,.52.19c.16.06.38,0,.41.26a.16.16,0,0,0,.11,0c.24,0,.49,0,.76,0-.14-.46-.57-.16-.8-.32.14-.26.1-.33-.19-.34h-.4a3.77,3.77,0,0,1,.58-.5.91.91,0,0,1,1,.16.6.6,0,0,0,1,.09c.16-.16.16-.16.35,0a1,1,0,0,1-1.06.46c0,.17.05.31.07.45h.67s.13,0,.14-.07.2-.18.33-.16.36-.09.35-.34L117,2.35c.09-.39.47-.47,1.11-.27-.13.22-.55.32-.32.67.07.1.31.1.49.15a2.29,2.29,0,0,0,0-.39.29.29,0,0,1,.21-.35A1.69,1.69,0,0,1,120,2.11a3.59,3.59,0,0,0,.53.24c.21.07.32.18.28.4s0,.22.19.24a1.27,1.27,0,0,1,.18.06c-.15.35-.15.36-.48.34a.3.3,0,0,0-.35.27l-.07.16L119,3.53,120,3a.63.63,0,0,0-.73-.29c-.18,0-.42,0-.55.14a.92.92,0,0,1-.73.31l.16.31c-.09,0-.26,0-.28.11-.07.22-.21.14-.34.14s0-.24-.09-.43l-1.74.91c.07.2.08.44.19.51a7,7,0,0,0,1,.38v.63a.32.32,0,0,0,.41-.25.62.62,0,0,1,.53-.47.83.83,0,0,0,.15,0c.15,0,.19-.1.18-.25s0-.37,0-.56.3-.44.47-.41l.82.2c0,.2,0,.38,0,.66l.93-.37a2.49,2.49,0,0,1,0,.37.45.45,0,0,0,.3.54c.2.07.22.22.21.4s-.16.22-.28.27l-.21.08,0,.08a2.82,2.82,0,0,0,.41.23c.22.08.27.2.17.44l-.6-.17c-.33-.1-.34-.16-.13-.42a.38.38,0,0,0,0-.24s-.17,0-.17,0c-.14.31-.44.14-.66.27a.35.35,0,0,0-.48-.3.28.28,0,0,0-.17.18c0,.31.28.17.4.31l-.18.21c-.2-.2-.36-.16-.53,0s-.32.43-.53.52a4.45,4.45,0,0,0-1.35,1.12.28.28,0,0,0-.09.18c0,.26-.16.36-.35.48a2.79,2.79,0,0,0-.42.28c-.32.23-.6.49-.46.94a1.27,1.27,0,0,1,0,.28c-.38-.09-.65-.23-.54-.68h-.23a6.82,6.82,0,0,0-1.28,0,1.75,1.75,0,0,0-.86.45,2.74,2.74,0,0,0-.41.86c-.07.18.06.67.18.7s.53.17.79,0l.8-.53.08,0a2.55,2.55,0,0,1,0,.41,1.87,1.87,0,0,1-.22.45l.76.14c0,.4,0,.78.08,1.16a1.67,1.67,0,0,1,.26.06.93.93,0,0,0,1.28-.44.32.32,0,0,1,.43-.15c.2.07.5.08.59.22a.6.6,0,0,0,.72.26,2,2,0,0,0,.38-.15c.31,0,.47.24.6.5a.61.61,0,0,0,.64.38c.44,0,.55.07.69.49a1,1,0,0,1,.06.35v.1c0,.19.08.25.23.33a3.47,3.47,0,0,0,1.65.28.36.36,0,0,1,.28.13.93.93,0,0,0,.61.54v.53a3.64,3.64,0,0,1-.24.35,1.08,1.08,0,0,0-.26.45,10.18,10.18,0,0,0-.12,1.11.8.8,0,0,1-.28.54,1,1,0,0,1-.76.18.49.49,0,0,0-.48.58,3.28,3.28,0,0,0,.11.45.37.37,0,0,1-.09.39c-.3.41-.59.83-.89,1.25,0,0,0,.09-.1.11l-1,.4a1.71,1.71,0,0,0-.23.13,1.62,1.62,0,0,0,.19.18.55.55,0,0,0,.19.09c-.13.19-.25.35-.42.58a.92.92,0,0,0,.25.17,2,2,0,0,0,.35,0,.85.85,0,0,1,0,.25c-.23.43-.06.71.31.94.17.1.11.21,0,.34a2.16,2.16,0,0,0-.36,0,.88.88,0,0,1-.68-.25,3.67,3.67,0,0,1-.81-1l-.07-.12a1.14,1.14,0,0,1-.16-.85,1,1,0,0,0-.27-1,.42.42,0,0,1-.11-.43c.06-.26.1-.52.14-.8-.25,0-.27-.17-.26-.36,0-.38,0-.76,0-1.15,0-.85,0-.85-.7-1.31,0,0,0,0-.07,0a.55.55,0,0,1-.54-.57s0-.08-.09-.12a7.26,7.26,0,0,0-.49-.61c-.26-.29-.47-.56-.29-1v0a.94.94,0,0,1,.58-1.07c.07,0,.11-.17.12-.26s0-.29-.05-.43-.07-.25-.25-.24a2.62,2.62,0,0,1-.28,0,.86.86,0,0,1-.82-.4,1.37,1.37,0,0,0-1-.69c-.24,0-.39-.1-.3-.4-.19,0-.39-.18-.51.12L111,12a.63.63,0,0,1-.23-.17,1.94,1.94,0,0,1-.27-.43.3.3,0,0,1,0-.26.34.34,0,0,0,0-.44,2.46,2.46,0,0,1-.69-1.49.37.37,0,0,0,0-.11h-.25a1.86,1.86,0,0,0,.43,1.3.42.42,0,0,1,0,.54c-.14-.07-.34-.11-.43-.22A1.85,1.85,0,0,1,109,9.26a.56.56,0,0,0,0-.13c0-.08-.09-.2-.15-.22a.51.51,0,0,1-.39-.65,1,1,0,0,0,0-.17h0a.27.27,0,0,0-.06.1,12.77,12.77,0,0,0-.84,6.59c0,.33.1.65.16,1a12.85,12.85,0,0,0,2.59,5.49c.28.34.57.67.88,1a12.89,12.89,0,0,0,6.21,3.55c.39.09.78.17,1.18.23l1.08.15h1.74l.24-.05,1.09-.15.77-.14a12.94,12.94,0,0,0,6.21-3.42C130,22.09,130.33,21.73,130.7,21.35Z"/><path class="cls-1" d="M2.56,75V72.56l.21.57L0,68.58H1l2.33,3.84H2.78l2.34-3.84H6L3.27,73.13l.2-.57V75Z"/><path class="cls-1" d="M10.53,75.1a3.79,3.79,0,0,1-1.37-.24,3.39,3.39,0,0,1-1.1-.7,3.3,3.3,0,0,1-.71-1,3.41,3.41,0,0,1,0-2.61,3.3,3.3,0,0,1,.71-1,3.34,3.34,0,0,1,1.09-.7,3.85,3.85,0,0,1,1.38-.24,3.78,3.78,0,0,1,1.36.24,3.16,3.16,0,0,1,1.09.69,3.3,3.3,0,0,1,.71,1,3.46,3.46,0,0,1,0,2.63,3.3,3.3,0,0,1-.71,1,3.16,3.16,0,0,1-1.09.69A3.78,3.78,0,0,1,10.53,75.1Zm0-.82a2.73,2.73,0,0,0,1-.18,2.54,2.54,0,0,0,1.31-3.28,2.42,2.42,0,0,0-.52-.78,2.34,2.34,0,0,0-.79-.53,2.73,2.73,0,0,0-1-.18,2.64,2.64,0,0,0-1,.18A2.46,2.46,0,0,0,8.2,70.82a2.65,2.65,0,0,0,0,2,2.34,2.34,0,0,0,.53.79,2.4,2.4,0,0,0,.8.52A2.64,2.64,0,0,0,10.52,74.28Z"/><path class="cls-1" d="M19,75.1a2.71,2.71,0,0,1-2-.72,2.88,2.88,0,0,1-.73-2.13V68.58h.92v3.63a2.23,2.23,0,0,0,.48,1.58,1.75,1.75,0,0,0,1.34.49,1.79,1.79,0,0,0,1.35-.49,2.28,2.28,0,0,0,.47-1.58V68.58h.9v3.67A2.88,2.88,0,0,1,21,74.38,2.71,2.71,0,0,1,19,75.1Z"/><path class="cls-1" d="M24.49,75V68.58H27a3.51,3.51,0,0,1,1.45.27,2,2,0,0,1,.92.77,2.17,2.17,0,0,1,.33,1.21,2.14,2.14,0,0,1-.33,1.2,2,2,0,0,1-.92.77,3.51,3.51,0,0,1-1.45.27H25l.41-.43V75Zm.92-2.29L25,72.28h2a2,2,0,0,0,1.34-.38,1.5,1.5,0,0,0,0-2.14A2.08,2.08,0,0,0,27,69.38H25l.41-.46ZM28.8,75l-1.64-2.34h1L29.81,75Z"/><path class="cls-1" d="M38.4,75.1A3.7,3.7,0,0,1,37,74.86,3,3,0,0,1,36,74.17a3.44,3.44,0,0,1-.72-3.68,3.5,3.5,0,0,1,.72-1A3.22,3.22,0,0,1,37,68.75a3.78,3.78,0,0,1,1.36-.24,3.64,3.64,0,0,1,1.38.25,2.92,2.92,0,0,1,1.08.75l-.6.58a2.55,2.55,0,0,0-.83-.58,2.72,2.72,0,0,0-1-.18,2.79,2.79,0,0,0-1,.18,2.31,2.31,0,0,0-.8.52,2.21,2.21,0,0,0-.53.78,2.7,2.7,0,0,0,0,2,2.21,2.21,0,0,0,.53.78,2.17,2.17,0,0,0,.8.52,2.79,2.79,0,0,0,1,.18,2.72,2.72,0,0,0,1-.18,2.59,2.59,0,0,0,.83-.59l.6.58a3.07,3.07,0,0,1-1.08.76A3.64,3.64,0,0,1,38.4,75.1Z"/><path class="cls-1" d="M45.87,75.1a3.83,3.83,0,0,1-1.37-.24,3.34,3.34,0,0,1-1.09-.7,3.17,3.17,0,0,1-.72-1,3.41,3.41,0,0,1,0-2.61,3.17,3.17,0,0,1,.72-1,3.34,3.34,0,0,1,1.09-.7,4,4,0,0,1,2.73,0A3.18,3.18,0,0,1,49,70.49a3.58,3.58,0,0,1,0,2.63,3.18,3.18,0,0,1-1.81,1.74A3.74,3.74,0,0,1,45.87,75.1Zm0-.82a2.7,2.7,0,0,0,1-.18,2.36,2.36,0,0,0,.79-.52,2.49,2.49,0,0,0,.53-.79,2.65,2.65,0,0,0,0-2,2.45,2.45,0,0,0-.53-.78,2.24,2.24,0,0,0-.79-.53,2.7,2.7,0,0,0-1-.18,2.64,2.64,0,0,0-1,.18,2.38,2.38,0,0,0-.8.53,2.45,2.45,0,0,0-.53.78,2.65,2.65,0,0,0,0,2,2.38,2.38,0,0,0,1.33,1.31A2.64,2.64,0,0,0,45.86,74.28Z"/><path class="cls-1" d="M51.62,75V68.58h.76l2.89,4.87h-.4l2.85-4.87h.76V75H57.6V70h.22l-2.55,4.28h-.42L52.28,70h.23V75Z"/><path class="cls-1" d="M62.27,75h-.93V68.58H65.9v.8H62.27Zm-.1-3.4H65.5v.79H62.17Z"/><path class="cls-1" d="M71,75.1a3.79,3.79,0,0,1-1.37-.24,3.24,3.24,0,0,1-1.09-.7,3.17,3.17,0,0,1-.72-1,3.41,3.41,0,0,1,0-2.61,3.17,3.17,0,0,1,.72-1,3.3,3.3,0,0,1,1.08-.7A3.85,3.85,0,0,1,71,68.51a3.78,3.78,0,0,1,1.36.24,3.16,3.16,0,0,1,1.09.69,3.3,3.3,0,0,1,.71,1,3.46,3.46,0,0,1,0,2.63,3.3,3.3,0,0,1-.71,1,3.16,3.16,0,0,1-1.09.69A3.78,3.78,0,0,1,71,75.1Zm0-.82a2.73,2.73,0,0,0,1-.18,2.36,2.36,0,0,0,.79-.52,2.6,2.6,0,0,0,.52-2.76,2.42,2.42,0,0,0-.52-.78,2.24,2.24,0,0,0-.79-.53,2.73,2.73,0,0,0-1-.18,2.64,2.64,0,0,0-1,.18,2.46,2.46,0,0,0-1.33,1.31,2.65,2.65,0,0,0,0,2,2.34,2.34,0,0,0,.53.79,2.4,2.4,0,0,0,.8.52A2.64,2.64,0,0,0,71,74.28Z"/><path class="cls-1" d="M76.71,75V68.58h2.51a3.51,3.51,0,0,1,1.45.27,2,2,0,0,1,.92.77,2.17,2.17,0,0,1,.32,1.21,2.13,2.13,0,0,1-.32,1.2,2,2,0,0,1-.92.77,3.51,3.51,0,0,1-1.45.27h-2l.42-.43V75Zm.92-2.29-.42-.46h2a2,2,0,0,0,1.34-.38,1.5,1.5,0,0,0,0-2.14,2.08,2.08,0,0,0-1.34-.38h-2l.42-.46ZM81,75l-1.64-2.34h1L82,75Z"/><path class="cls-1" d="M85.52,75V69.38H83.31v-.8h5.33v.8H86.43V75Z"/><path class="cls-1" d="M94,75V68.58h.92V75Z"/><path class="cls-1" d="M99.63,75.1a4.43,4.43,0,0,1-1.41-.22,2.88,2.88,0,0,1-1.06-.59l.34-.72a2.94,2.94,0,0,0,.94.54,3.43,3.43,0,0,0,1.19.21,2.58,2.58,0,0,0,.91-.13,1.07,1.07,0,0,0,.52-.35.84.84,0,0,0,.16-.51.72.72,0,0,0-.21-.54,1.94,1.94,0,0,0-.57-.33,6.35,6.35,0,0,0-.76-.21c-.27-.06-.55-.14-.83-.22a3.56,3.56,0,0,1-.77-.32,1.48,1.48,0,0,1-.77-1.36,1.68,1.68,0,0,1,.27-.92,1.77,1.77,0,0,1,.81-.67,3.31,3.31,0,0,1,1.4-.25,4.22,4.22,0,0,1,1.11.14,3,3,0,0,1,1,.43l-.31.73a3.12,3.12,0,0,0-.87-.4,3.58,3.58,0,0,0-.89-.12,2.3,2.3,0,0,0-.9.14,1.06,1.06,0,0,0-.51.37.84.84,0,0,0-.16.51.74.74,0,0,0,.21.55,1.73,1.73,0,0,0,.57.32,6.35,6.35,0,0,0,.76.21l.83.22a4.12,4.12,0,0,1,.77.31,1.61,1.61,0,0,1,.55.52,1.5,1.5,0,0,1,.22.83,1.64,1.64,0,0,1-.27.91,1.83,1.83,0,0,1-.83.67A3.37,3.37,0,0,1,99.63,75.1Z"/><path class="cls-1" d="M106.82,75l2.92-6.45h.91L113.58,75h-1L110,69.1h.36L107.77,75Zm1.24-1.61.25-.74h3.63l.27.74Z"/><path class="cls-1" d="M117.34,75.1a4.43,4.43,0,0,1-1.41-.22,2.88,2.88,0,0,1-1.06-.59l.34-.72a2.94,2.94,0,0,0,.94.54,3.43,3.43,0,0,0,1.19.21,2.54,2.54,0,0,0,.91-.13,1,1,0,0,0,.52-.35.85.85,0,0,0,.17-.51.72.72,0,0,0-.22-.54,1.76,1.76,0,0,0-.56-.33,6.92,6.92,0,0,0-.76-.21c-.28-.06-.56-.14-.84-.22a3.47,3.47,0,0,1-.76-.32,1.55,1.55,0,0,1-.56-.52,1.54,1.54,0,0,1-.21-.84,1.75,1.75,0,0,1,.26-.92,1.88,1.88,0,0,1,.81-.67,3.34,3.34,0,0,1,1.4-.25,4.17,4.17,0,0,1,1.11.14,3,3,0,0,1,1,.43l-.3.73a3.32,3.32,0,0,0-.88-.4,3.52,3.52,0,0,0-.89-.12,2.36,2.36,0,0,0-.9.14,1.06,1.06,0,0,0-.51.37.91.91,0,0,0-.16.51.71.71,0,0,0,.22.55,1.59,1.59,0,0,0,.56.32,6.35,6.35,0,0,0,.76.21l.83.22a4.12,4.12,0,0,1,.77.31,1.65,1.65,0,0,1,.56.52,1.5,1.5,0,0,1,.21.83,1.64,1.64,0,0,1-.27.91,1.85,1.85,0,0,1-.82.67A3.39,3.39,0,0,1,117.34,75.1Z"/><path class="cls-1" d="M124,75.1a4.38,4.38,0,0,1-1.41-.22,2.8,2.8,0,0,1-1.06-.59l.34-.72a2.83,2.83,0,0,0,.94.54,3.43,3.43,0,0,0,1.19.21,2.58,2.58,0,0,0,.91-.13,1.11,1.11,0,0,0,.52-.35.84.84,0,0,0,.16-.51.69.69,0,0,0-.22-.54,1.76,1.76,0,0,0-.56-.33,6.35,6.35,0,0,0-.76-.21c-.27-.06-.55-.14-.83-.22a3.56,3.56,0,0,1-.77-.32,1.64,1.64,0,0,1-.56-.52,1.54,1.54,0,0,1-.21-.84,1.68,1.68,0,0,1,.27-.92,1.77,1.77,0,0,1,.81-.67,3.29,3.29,0,0,1,1.39-.25,4.25,4.25,0,0,1,1.12.14,3,3,0,0,1,1,.43l-.31.73a3.26,3.26,0,0,0-.87-.4,3.6,3.6,0,0,0-.9-.12,2.28,2.28,0,0,0-.89.14,1,1,0,0,0-.51.37.84.84,0,0,0-.16.51.74.74,0,0,0,.21.55,1.64,1.64,0,0,0,.57.32,6.35,6.35,0,0,0,.76.21l.83.22a4,4,0,0,1,.76.31,1.56,1.56,0,0,1,.56.52,1.5,1.5,0,0,1,.21.83,1.63,1.63,0,0,1-.26.91,1.88,1.88,0,0,1-.83.67A3.37,3.37,0,0,1,124,75.1Z"/><path class="cls-1" d="M131.42,75.1a2.74,2.74,0,0,1-2-.72,2.92,2.92,0,0,1-.72-2.13V68.58h.92v3.63a2.28,2.28,0,0,0,.47,1.58,1.78,1.78,0,0,0,1.34.49,1.76,1.76,0,0,0,1.35-.49,2.23,2.23,0,0,0,.48-1.58V68.58h.89v3.67a2.92,2.92,0,0,1-.72,2.13A2.72,2.72,0,0,1,131.42,75.1Z"/><path class="cls-1" d="M137,75V68.58h2.52a3.54,3.54,0,0,1,1.45.27,2,2,0,0,1,.92.77,2.25,2.25,0,0,1,.32,1.21,2.22,2.22,0,0,1-.32,1.2,2.06,2.06,0,0,1-.92.77,3.54,3.54,0,0,1-1.45.27h-2l.41-.43V75Zm.92-2.29-.41-.46h2a2,2,0,0,0,1.34-.38,1.47,1.47,0,0,0,0-2.14,2.06,2.06,0,0,0-1.34-.38h-2l.41-.46Zm3.4,2.29-1.64-2.34h1L142.28,75Z"/><path class="cls-1" d="M145.51,74.23h3.76V75h-4.69V68.58h4.56v.8h-3.63Zm-.09-2.87h3.32v.79h-3.32Z"/><path class="cls-1" d="M151.68,75V68.58h2.72a3.9,3.9,0,0,1,1.82.4,3.08,3.08,0,0,1,1.23,1.14,3.52,3.52,0,0,1,0,3.37,3,3,0,0,1-1.23,1.13,3.79,3.79,0,0,1-1.82.41Zm.92-.8h1.74a2.88,2.88,0,0,0,1.39-.31,2.2,2.2,0,0,0,.91-.85,2.39,2.39,0,0,0,.32-1.26,2.44,2.44,0,0,0-.32-1.28,2.24,2.24,0,0,0-.91-.84,2.88,2.88,0,0,0-1.39-.31H152.6Z"/><line class="cls-2" x1="1.95" y1="61.1" x2="157.3" y2="61.1"/></g></g></svg>